<svg xmlns="http://www.w3.org/2000/svg" version="1.1" xmlns:xlink="http://www.w3.org/1999/xlink" width="512" height="512" x="0" y="0" viewBox="0 0 24 24" style="enable-background:new 0 0 512 512" xml:space="preserve" fill-rule="evenodd" class=""><g><path d="M4.601 17.549A9.206 9.206 0 0 1 2.75 12a.75.75 0 0 0-1.5 0c0 2.419.801 4.653 2.152 6.451a.75.75 0 0 0 1.199-.902zM3.174 9.225a9.27 9.27 0 0 1 3.277-4.624.75.75 0 0 0-.902-1.199 10.784 10.784 0 0 0-3.806 5.373.75.75 0 0 0 1.431.45zM9.225 3.174A9.218 9.218 0 0 1 12 2.75c5.105 0 9.25 4.145 9.25 9.25s-4.145 9.25-9.25 9.25a9.197 9.197 0 0 1-5.547-1.85.751.751 0 0 0-.901 1.2A10.7 10.7 0 0 0 12 22.75c5.933 0 10.75-4.817 10.75-10.75S17.933 1.25 12 1.25a10.74 10.74 0 0 0-3.225.493.75.75 0 0 0 .45 1.431z" fill="#f14242" opacity="1" data-original="#000000" class=""></path><path d="M12.75 15.5v-7a.75.75 0 0 0-1.5 0v7a.75.75 0 0 0 1.5 0z" fill="#f14242" opacity="1" data-original="#000000" class=""></path><path d="m12.53 14.97-2.828-2.829a.752.752 0 0 0-1.061 0 .752.752 0 0 0 0 1.061l2.829 2.828a.749.749 0 1 0 1.06-1.06z" fill="#f14242" opacity="1" data-original="#000000" class=""></path><path d="M14.298 12.141 11.47 14.97a.749.749 0 1 0 1.06 1.06l2.829-2.828a.752.752 0 0 0 0-1.061.752.752 0 0 0-1.061 0z" fill="#f14242" opacity="1" data-original="#000000" class=""></path></g></svg>